<?xml version="1.0" encoding="UTF-8" standalone="no"?>
<!-- Created with Inkscape (http://www.inkscape.org/) -->

<svg
   xmlns:dc="http://purl.org/dc/elements/1.1/"
   xmlns:cc="http://creativecommons.org/ns#"
   xmlns:rdf="http://www.w3.org/1999/02/22-rdf-syntax-ns#"
   xmlns:svg="http://www.w3.org/2000/svg"
   xmlns="http://www.w3.org/2000/svg"
   xmlns:sodipodi="http://sodipodi.sourceforge.net/DTD/sodipodi-0.dtd"
   xmlns:inkscape="http://www.inkscape.org/namespaces/inkscape"
   width="238.77016"
   height="132.42235"
   viewBox="0 0 63.174606 35.036747"
   version="1.1"
   id="svg2634"
   inkscape:version="0.92.4 (5da689c313, 2019-01-14)"
   sodipodi:docname="FLLC (with FIRST logo).svg">
  <defs
     id="defs2628" />
  <sodipodi:namedview
     id="base"
     pagecolor="#ffffff"
     bordercolor="#666666"
     borderopacity="1.0"
     inkscape:pageopacity="0.0"
     inkscape:pageshadow="2"
     inkscape:zoom="2.8"
     inkscape:cx="169.99015"
     inkscape:cy="82.35545"
     inkscape:document-units="mm"
     inkscape:current-layer="layer1"
     showgrid="false"
     fit-margin-top="0"
     fit-margin-left="0"
     fit-margin-right="0"
     fit-margin-bottom="0"
     inkscape:window-width="1920"
     inkscape:window-height="1017"
     inkscape:window-x="-8"
     inkscape:window-y="-8"
     inkscape:window-maximized="1"
     units="px" />
  <metadata
     id="metadata2631">
    <rdf:RDF>
      <cc:Work
         rdf:about="">
        <dc:format>image/svg+xml</dc:format>
        <dc:type
           rdf:resource="http://purl.org/dc/dcmitype/StillImage" />
        <dc:title></dc:title>
      </cc:Work>
    </rdf:RDF>
  </metadata>
  <g
     inkscape:label="Layer 1"
     inkscape:groupmode="layer"
     id="layer1"
     transform="translate(-2.3542345,-79.588064)">
    <g
       id="g2286"
       transform="matrix(0.45168201,0,0,-0.45168201,63.444777,114.62481)">
      <path
         d="m 0,0 h -130.515 c -2.548,0 -4.614,2.066 -4.614,4.614 v 18.4 c 0,2.548 2.066,4.615 4.614,4.615 L 0,27.629 c 2.549,0 4.614,-2.067 4.614,-4.615 V 4.614 C 4.614,2.066 2.549,0 0,0"
         style="fill:#ed1c24;fill-opacity:1;fill-rule:nonzero;stroke:none"
         id="path2288"
         inkscape:connector-curvature="0" />
    </g>
    <g
       id="g2290"
       transform="matrix(0.45168201,0,0,-0.45168201,11.50267,109.7176)">
      <path
         d="M 0,0 C 0.219,0.22 0.469,0.347 0.75,0.381 1.031,0.415 1.288,0.377 1.521,0.268 1.754,0.158 1.936,-0.017 2.065,-0.257 2.195,-0.496 2.227,-0.78 2.158,-1.109 2.076,-1.438 1.918,-1.743 1.686,-2.024 1.452,-2.306 1.22,-2.563 0.986,-2.795 0.452,-3.357 -0.141,-3.771 -0.792,-4.038 c -0.65,-0.268 -1.309,-0.395 -1.973,-0.381 -0.665,0.014 -1.315,0.172 -1.953,0.473 -0.636,0.301 -1.209,0.754 -1.716,1.356 -0.301,0.357 -0.555,0.734 -0.76,1.131 -0.206,0.397 -0.364,0.815 -0.473,1.254 -0.165,0.643 -0.24,1.315 -0.227,2.015 0.014,0.698 0.124,1.377 0.33,2.034 0.206,0.658 0.497,1.278 0.874,1.86 0.376,0.583 0.838,1.079 1.386,1.49 0.398,0.302 0.799,0.563 1.203,0.782 0.404,0.218 0.832,0.424 1.285,0.617 0.26,0.109 0.527,0.216 0.801,0.318 0.275,0.103 0.555,0.182 0.843,0.236 0.288,0.055 0.575,0.076 0.863,0.062 C -0.021,9.195 0.26,9.134 0.534,9.024 0.726,8.941 0.918,8.829 1.109,8.685 1.302,8.541 1.479,8.377 1.645,8.191 1.809,8.007 1.952,7.812 2.076,7.605 2.199,7.4 2.288,7.201 2.343,7.01 2.384,6.831 2.395,6.65 2.374,6.465 2.354,6.28 2.299,6.112 2.21,5.961 2.12,5.811 2,5.684 1.85,5.581 1.699,5.479 1.527,5.413 1.336,5.386 1.021,5.345 0.777,5.379 0.606,5.488 0.435,5.598 0.298,5.735 0.195,5.899 0.093,6.064 -0.007,6.225 -0.103,6.383 -0.199,6.54 -0.336,6.653 -0.514,6.722 -0.624,6.722 -0.706,6.715 -0.761,6.701 -1.227,6.578 -1.696,6.41 -2.169,6.198 -2.642,5.985 -3.08,5.729 -3.484,5.427 -3.889,5.125 -4.241,4.776 -4.543,4.379 -4.845,3.981 -5.063,3.536 -5.2,3.043 -5.365,2.453 -5.427,1.857 -5.386,1.254 c 0.041,-0.603 0.206,-1.171 0.493,-1.706 0.165,-0.316 0.384,-0.589 0.659,-0.822 0.273,-0.233 0.575,-0.408 0.904,-0.524 0.329,-0.117 0.664,-0.158 1.007,-0.124 0.343,0.034 0.672,0.154 0.987,0.36 0.274,0.192 0.521,0.428 0.739,0.709 C -0.377,-0.572 -0.179,-0.287 0,0"
         style="fill:#ffffff;fill-opacity:1;fill-rule:nonzero;stroke:none"
         id="path2292"
         inkscape:connector-curvature="0" />
    </g>
    <g
       id="g2294"
       transform="matrix(0.45168201,0,0,-0.45168201,18.386439,108.18567)">
      <path
         d="M 0,0 C 0.328,-0.096 0.575,-0.271 0.739,-0.523 0.904,-0.777 0.982,-1.041 0.976,-1.315 0.969,-1.59 0.884,-1.847 0.719,-2.086 0.555,-2.326 0.314,-2.479 0,-2.549 v -3.576 c 0,-0.343 -0.086,-0.647 -0.258,-0.915 -0.171,-0.267 -0.38,-0.455 -0.626,-0.564 -0.247,-0.111 -0.508,-0.134 -0.781,-0.073 -0.274,0.062 -0.522,0.243 -0.74,0.545 -0.096,0.137 -0.161,0.294 -0.196,0.473 -0.034,0.178 -0.051,0.342 -0.051,0.493 v 3.556 h -4.789 v -3.494 c 0,-0.151 -0.014,-0.305 -0.041,-0.462 -0.028,-0.159 -0.076,-0.299 -0.144,-0.422 -0.179,-0.329 -0.404,-0.541 -0.679,-0.637 -0.274,-0.096 -0.541,-0.093 -0.801,0.01 -0.26,0.102 -0.483,0.281 -0.668,0.534 -0.185,0.254 -0.278,0.565 -0.278,0.935 V 4.481 c 0,0.357 0.107,0.665 0.319,0.925 0.212,0.26 0.456,0.443 0.729,0.545 0.275,0.103 0.552,0.11 0.833,0.021 0.28,-0.089 0.489,-0.306 0.627,-0.648 0.041,-0.11 0.068,-0.209 0.082,-0.298 0.014,-0.089 0.021,-0.188 0.021,-0.297 V 0.083 h 4.789 v 4.398 c 0,0.274 0.062,0.535 0.185,0.782 0.151,0.3 0.366,0.513 0.648,0.636 0.28,0.124 0.554,0.158 0.822,0.104 0.267,-0.056 0.5,-0.19 0.698,-0.401 C -0.1,5.389 0,5.098 0,4.729 Z"
         style="fill:#ffffff;fill-opacity:1;fill-rule:nonzero;stroke:none"
         id="path2296"
         inkscape:connector-curvature="0" />
    </g>
    <g
       id="g2298"
       transform="matrix(0.45168201,0,0,-0.45168201,23.134792,108.55665)">
      <path
         d="M 0,0 C -0.261,0.616 -0.538,1.229 -0.833,1.839 -1.128,2.449 -1.46,3.027 -1.83,3.576 -2.104,2.973 -2.361,2.374 -2.601,1.777 -2.841,1.182 -3.063,0.575 -3.269,-0.042 c 0.644,0.014 1.209,0.021 1.697,0.021 0.485,0 1.01,0.006 1.572,0.021 M 4.193,-5.592 C 4.151,-5.893 4.049,-6.15 3.885,-6.362 3.72,-6.574 3.531,-6.722 3.319,-6.804 3.106,-6.887 2.881,-6.896 2.641,-6.835 c -0.24,0.062 -0.462,0.223 -0.668,0.483 -0.178,0.219 -0.278,0.462 -0.298,0.73 -0.021,0.267 -0.059,0.53 -0.113,0.791 -0.137,0.754 -0.336,1.528 -0.596,2.323 -0.85,-0.014 -1.693,-0.02 -2.528,-0.02 -0.836,0 -1.672,-0.008 -2.508,-0.021 -0.123,-0.357 -0.23,-0.72 -0.319,-1.09 -0.089,-0.37 -0.174,-0.733 -0.257,-1.09 -0.069,-0.273 -0.13,-0.557 -0.185,-0.852 -0.055,-0.295 -0.178,-0.552 -0.369,-0.771 -0.234,-0.274 -0.484,-0.428 -0.751,-0.462 -0.267,-0.035 -0.507,0.01 -0.719,0.133 -0.213,0.123 -0.384,0.312 -0.515,0.566 -0.129,0.253 -0.174,0.544 -0.132,0.873 0.041,0.425 0.123,0.843 0.246,1.254 0.123,0.411 0.239,0.822 0.349,1.233 0.617,2.357 1.411,4.639 2.385,6.845 0.082,0.191 0.167,0.377 0.257,0.555 0.089,0.178 0.175,0.356 0.257,0.535 0.095,0.191 0.191,0.396 0.287,0.616 0.096,0.219 0.209,0.422 0.34,0.606 0.13,0.185 0.284,0.343 0.462,0.473 0.178,0.13 0.397,0.195 0.658,0.195 0.342,0 0.63,-0.109 0.863,-0.329 C -0.281,5.81 0.486,4.758 1.089,3.586 1.692,2.415 2.233,1.219 2.713,0 3.001,0.013 3.281,0.013 3.556,0 3.83,-0.015 4.076,-0.138 4.296,-0.37 4.487,-0.562 4.601,-0.769 4.635,-0.987 4.669,-1.206 4.648,-1.419 4.573,-1.624 4.498,-1.83 4.374,-2.008 4.203,-2.159 4.031,-2.31 3.823,-2.412 3.576,-2.467 c 0.137,-0.48 0.257,-0.97 0.36,-1.47 0.103,-0.5 0.188,-1.003 0.257,-1.51 z"
         style="fill:#ffffff;fill-opacity:1;fill-rule:nonzero;stroke:none"
         id="path2300"
         inkscape:connector-curvature="0" />
    </g>
    <g
       id="g2302"
       transform="matrix(0.45168201,0,0,-0.45168201,29.981063,110.45073)">
      <path
         d="M 0,0 C 0.315,-0.151 0.556,-0.343 0.72,-0.576 0.884,-0.809 0.963,-1.045 0.956,-1.285 0.949,-1.525 0.86,-1.751 0.688,-1.963 0.518,-2.176 0.254,-2.337 -0.103,-2.446 -0.239,-2.487 -0.432,-2.511 -0.678,-2.519 -0.925,-2.525 -1.268,-2.528 -1.706,-2.528 h -1.665 c -0.671,0 -1.5,-0.007 -2.487,-0.021 -0.246,-0.014 -0.5,-0.02 -0.76,-0.02 -0.261,0 -0.487,0.089 -0.679,0.266 -0.164,0.138 -0.284,0.346 -0.359,0.627 -0.076,0.281 -0.124,0.576 -0.145,0.884 -0.02,0.309 -0.027,0.617 -0.02,0.925 0.007,0.308 0.01,0.565 0.01,0.771 0,0.411 0.003,0.884 0.01,1.418 0.007,0.534 0.014,1.079 0.021,1.634 0.007,0.556 0.01,1.101 0.01,1.635 v 1.418 c 0,0.726 0.007,1.312 0.021,1.758 0.014,0.445 0.044,0.794 0.093,1.047 0.048,0.254 0.126,0.439 0.236,0.555 0.109,0.117 0.26,0.216 0.452,0.299 0.164,0.068 0.346,0.092 0.545,0.071 0.198,-0.02 0.383,-0.075 0.555,-0.164 0.171,-0.089 0.315,-0.213 0.431,-0.37 0.117,-0.157 0.175,-0.332 0.175,-0.524 0.028,-1.644 0.028,-3.276 0,-4.892 -0.027,-1.617 -0.041,-3.234 -0.041,-4.851 0.864,0 1.723,0.01 2.579,0.031 0.857,0.02 1.724,0.044 2.601,0.072 z"
         style="fill:#ffffff;fill-opacity:1;fill-rule:nonzero;stroke:none"
         id="path2304"
         inkscape:connector-curvature="0" />
    </g>
    <g
       id="g2306"
       transform="matrix(0.45168201,0,0,-0.45168201,35.277294,110.45073)">
      <path
         d="M 0,0 C 0.315,-0.151 0.556,-0.343 0.72,-0.576 0.884,-0.809 0.963,-1.045 0.956,-1.285 0.949,-1.525 0.86,-1.751 0.688,-1.963 0.518,-2.176 0.254,-2.337 -0.103,-2.446 -0.239,-2.487 -0.432,-2.511 -0.678,-2.519 -0.925,-2.525 -1.268,-2.528 -1.706,-2.528 h -1.665 c -0.671,0 -1.5,-0.007 -2.487,-0.021 -0.246,-0.014 -0.5,-0.02 -0.76,-0.02 -0.261,0 -0.487,0.089 -0.679,0.266 -0.164,0.138 -0.284,0.346 -0.359,0.627 -0.076,0.281 -0.124,0.576 -0.145,0.884 -0.02,0.309 -0.027,0.617 -0.02,0.925 0.007,0.308 0.01,0.565 0.01,0.771 0,0.411 0.003,0.884 0.01,1.418 0.007,0.534 0.014,1.079 0.021,1.634 0.007,0.556 0.01,1.101 0.01,1.635 v 1.418 c 0,0.726 0.007,1.312 0.021,1.758 0.014,0.445 0.044,0.794 0.093,1.047 0.048,0.254 0.126,0.439 0.236,0.555 0.109,0.117 0.26,0.216 0.452,0.299 0.164,0.068 0.346,0.092 0.545,0.071 0.198,-0.02 0.383,-0.075 0.555,-0.164 0.171,-0.089 0.315,-0.213 0.431,-0.37 0.117,-0.157 0.175,-0.332 0.175,-0.524 0.028,-1.644 0.028,-3.276 0,-4.892 -0.027,-1.617 -0.041,-3.234 -0.041,-4.851 0.864,0 1.723,0.01 2.579,0.031 0.857,0.02 1.724,0.044 2.601,0.072 z"
         style="fill:#ffffff;fill-opacity:1;fill-rule:nonzero;stroke:none"
         id="path2308"
         inkscape:connector-curvature="0" />
    </g>
    <g
       id="g2310"
       transform="matrix(0.45168201,0,0,-0.45168201,40.443809,110.20018)">
      <path
         d="M 0,0 C 0.246,-0.014 0.462,-0.079 0.647,-0.195 0.832,-0.312 0.982,-0.452 1.1,-0.616 1.216,-0.781 1.284,-0.97 1.305,-1.182 1.325,-1.395 1.28,-1.61 1.171,-1.829 1.13,-1.926 1.044,-2.038 0.914,-2.169 c -0.13,-0.13 -0.25,-0.209 -0.359,-0.236 -0.877,-0.26 -1.779,-0.421 -2.703,-0.483 -0.925,-0.061 -1.84,-0.045 -2.745,0.051 -0.26,0.028 -0.544,0.056 -0.852,0.083 -0.309,0.027 -0.579,0.116 -0.813,0.267 -0.424,0.274 -0.636,0.665 -0.636,1.172 V 7.44 c -0.152,0.111 -0.275,0.247 -0.37,0.412 -0.097,0.165 -0.155,0.339 -0.175,0.524 -0.021,0.186 0.003,0.363 0.072,0.534 0.068,0.172 0.185,0.319 0.349,0.443 0.274,0.218 0.589,0.366 0.946,0.441 0.355,0.075 0.705,0.141 1.048,0.195 0.713,0.111 1.425,0.165 2.137,0.165 0.713,0 1.439,0.007 2.179,0.021 0.219,0 0.473,0.016 0.761,0.051 0.288,0.034 0.541,0.01 0.761,-0.072 C 0.773,10.058 0.979,9.907 1.13,9.702 1.28,9.496 1.37,9.277 1.397,9.044 1.425,8.811 1.38,8.585 1.264,8.366 1.147,8.146 0.945,7.976 0.657,7.852 0.314,7.715 -0.052,7.653 -0.442,7.667 c -0.391,0.014 -0.764,0.02 -1.12,0.02 -0.522,0 -1.042,-0.006 -1.563,-0.02 C -3.646,7.653 -4.166,7.612 -4.687,7.544 V 4.687 c 0.494,-0.028 0.987,-0.028 1.48,0 0.493,0.027 0.986,0.061 1.48,0.102 0.219,0.014 0.438,0.034 0.658,0.062 0.218,0.027 0.445,0.027 0.678,0 C -0.09,4.81 0.144,4.687 0.308,4.48 0.473,4.275 0.571,4.046 0.605,3.792 0.64,3.539 0.596,3.289 0.473,3.042 0.349,2.796 0.15,2.617 -0.124,2.508 -0.356,2.412 -0.672,2.34 -1.069,2.292 -1.467,2.244 -1.885,2.21 -2.323,2.189 -2.762,2.169 -3.193,2.158 -3.618,2.158 c -0.425,0 -0.781,0.007 -1.069,0.021 V -0.35 c 0.753,-0.095 1.514,-0.109 2.282,-0.041 0.767,0.069 1.52,0.199 2.26,0.391 z"
         style="fill:#ffffff;fill-opacity:1;fill-rule:nonzero;stroke:none"
         id="path2312"
         inkscape:connector-curvature="0" />
    </g>
    <g
       id="g2314"
       transform="matrix(0.45168201,0,0,-0.45168201,46.343076,105.84569)">
      <path
         d="M 0,0 C 0.083,0.273 0.216,0.5 0.401,0.678 0.586,0.855 0.788,0.973 1.008,1.027 1.227,1.082 1.449,1.068 1.676,0.986 1.901,0.904 2.097,0.739 2.262,0.493 2.316,0.424 2.367,0.342 2.416,0.246 2.464,0.15 2.487,0.062 2.487,-0.021 2.515,-1.98 2.505,-3.937 2.457,-5.89 2.408,-7.842 2.33,-9.799 2.221,-11.758 c 0,-0.315 -0.1,-0.561 -0.299,-0.74 -0.198,-0.178 -0.425,-0.291 -0.678,-0.339 -0.254,-0.048 -0.511,-0.02 -0.77,0.082 -0.261,0.103 -0.453,0.277 -0.577,0.525 -0.013,0.013 -0.02,0.027 -0.02,0.041 v -0.041 c -0.891,1.465 -1.829,2.874 -2.815,4.223 -0.988,1.35 -2.015,2.69 -3.084,4.019 v -4.646 -1.582 c 0,-0.425 -0.007,-0.771 -0.021,-1.038 -0.014,-0.267 -0.03,-0.476 -0.051,-0.627 -0.02,-0.151 -0.052,-0.281 -0.093,-0.39 -0.123,-0.33 -0.311,-0.548 -0.565,-0.659 -0.254,-0.109 -0.511,-0.136 -0.77,-0.082 -0.261,0.055 -0.487,0.193 -0.679,0.411 -0.192,0.22 -0.287,0.494 -0.287,0.823 v 0.904 1.397 1.676 1.757 c 0,0.576 -0.004,1.113 -0.011,1.614 -0.007,0.5 -0.011,0.921 -0.011,1.264 0,0.466 -0.007,0.929 -0.02,1.388 -0.014,0.459 -0.014,0.921 0,1.387 0,0.233 0.058,0.432 0.175,0.596 0.116,0.164 0.263,0.291 0.442,0.38 0.178,0.09 0.37,0.141 0.575,0.154 0.206,0.014 0.404,-0.013 0.597,-0.082 0.164,-0.054 0.332,-0.168 0.503,-0.339 0.172,-0.172 0.34,-0.356 0.504,-0.554 0.164,-0.2 0.318,-0.399 0.463,-0.597 0.143,-0.198 0.263,-0.359 0.359,-0.483 0.356,-0.439 0.767,-0.942 1.233,-1.511 0.466,-0.569 0.898,-1.107 1.295,-1.613 0.398,-0.521 0.784,-1.041 1.161,-1.562 0.377,-0.521 0.744,-1.042 1.1,-1.562 0.041,1.247 0.068,2.487 0.082,3.72 0.014,1.233 0.02,2.473 0.02,3.72 z"
         style="fill:#ffffff;fill-opacity:1;fill-rule:nonzero;stroke:none"
         id="path2316"
         inkscape:connector-curvature="0" />
    </g>
    <g
       id="g2318"
       transform="matrix(0.45168201,0,0,-0.45168201,53.654222,108.04629)">
      <path
         d="M 0,0 C 0.273,-0.082 0.507,-0.216 0.699,-0.4 0.891,-0.586 1.018,-0.791 1.079,-1.018 1.141,-1.243 1.127,-1.47 1.038,-1.695 0.948,-1.922 0.761,-2.124 0.473,-2.302 0.445,-2.343 0.438,-2.511 0.452,-2.806 0.466,-3.101 0.476,-3.439 0.483,-3.823 0.489,-4.207 0.479,-4.594 0.452,-4.984 0.425,-5.375 0.363,-5.68 0.267,-5.899 0.171,-6.077 0.055,-6.235 -0.082,-6.372 -0.22,-6.509 -0.363,-6.639 -0.514,-6.763 c -0.507,-0.424 -1.048,-0.75 -1.624,-0.975 -0.575,-0.227 -1.165,-0.361 -1.767,-0.402 -0.604,-0.041 -1.21,0.021 -1.82,0.186 -0.61,0.164 -1.195,0.425 -1.757,0.78 -0.712,0.452 -1.312,1.035 -1.798,1.747 -0.488,0.713 -0.84,1.481 -1.059,2.303 -0.138,0.52 -0.216,1.065 -0.236,1.634 -0.021,0.568 0.023,1.131 0.133,1.685 0.11,0.555 0.288,1.086 0.535,1.593 0.246,0.507 0.554,0.967 0.925,1.378 0.438,0.48 0.941,0.876 1.51,1.191 0.569,0.316 1.155,0.59 1.757,0.823 0.466,0.192 0.946,0.336 1.44,0.431 0.493,0.096 0.993,0.131 1.5,0.104 C -2.392,5.687 -1.977,5.622 -1.531,5.52 -1.086,5.416 -0.706,5.234 -0.391,4.975 -0.24,4.852 -0.113,4.7 -0.011,4.522 0.093,4.344 0.154,4.162 0.175,3.978 0.195,3.793 0.171,3.614 0.103,3.443 0.034,3.271 -0.09,3.117 -0.268,2.98 -0.445,2.844 -0.634,2.765 -0.833,2.744 -1.031,2.724 -1.233,2.737 -1.439,2.785 -1.645,2.833 -1.85,2.898 -2.056,2.98 -2.261,3.063 -2.453,3.131 -2.631,3.187 -2.782,3.241 -2.943,3.265 -3.114,3.258 -3.286,3.251 -3.453,3.234 -3.618,3.207 -4.098,3.069 -4.581,2.901 -5.067,2.703 -5.554,2.504 -6.002,2.261 -6.413,1.974 -6.824,1.686 -7.178,1.343 -7.472,0.945 -7.767,0.548 -7.955,0.068 -8.037,-0.493 c -0.109,-0.699 -0.075,-1.395 0.102,-2.086 0.178,-0.692 0.507,-1.299 0.988,-1.819 0.314,-0.343 0.68,-0.621 1.099,-0.833 0.418,-0.212 0.853,-0.339 1.305,-0.38 0.452,-0.041 0.897,0.007 1.336,0.143 0.438,0.137 0.829,0.377 1.172,0.72 v 2.22 C -2.31,-2.542 -2.594,-2.566 -2.888,-2.6 c -0.295,-0.035 -0.59,-0.055 -0.883,-0.062 -0.295,-0.007 -0.583,0.014 -0.864,0.062 -0.281,0.048 -0.545,0.14 -0.792,0.278 -0.233,0.136 -0.393,0.318 -0.482,0.544 -0.09,0.226 -0.113,0.453 -0.072,0.678 0.041,0.227 0.136,0.435 0.288,0.627 0.15,0.192 0.355,0.323 0.616,0.391 0.123,0.027 0.277,0.044 0.463,0.052 0.184,0.006 0.369,0.009 0.554,0.009 0.185,0 0.353,-0.003 0.504,-0.009 0.151,-0.008 0.267,-0.011 0.349,-0.011 0.535,0 1.065,0.007 1.594,0.02 C -1.086,-0.007 -0.549,0 0,0"
         style="fill:#ffffff;fill-opacity:1;fill-rule:nonzero;stroke:none"
         id="path2320"
         inkscape:connector-curvature="0" />
    </g>
    <g
       id="g2322"
       transform="matrix(0.45168201,0,0,-0.45168201,58.959704,110.20018)">
      <path
         d="M 0,0 C 0.246,-0.014 0.462,-0.079 0.647,-0.195 0.832,-0.312 0.982,-0.452 1.1,-0.616 1.216,-0.781 1.284,-0.97 1.305,-1.182 1.325,-1.395 1.28,-1.61 1.171,-1.829 1.13,-1.926 1.044,-2.038 0.914,-2.169 c -0.13,-0.13 -0.25,-0.209 -0.359,-0.236 -0.877,-0.26 -1.779,-0.421 -2.703,-0.483 -0.925,-0.061 -1.84,-0.045 -2.745,0.051 -0.26,0.028 -0.544,0.056 -0.852,0.083 -0.309,0.027 -0.579,0.116 -0.813,0.267 -0.424,0.274 -0.636,0.665 -0.636,1.172 V 7.44 c -0.152,0.111 -0.275,0.247 -0.37,0.412 -0.097,0.165 -0.155,0.339 -0.175,0.524 -0.021,0.186 0.003,0.363 0.072,0.534 0.068,0.172 0.185,0.319 0.349,0.443 0.274,0.218 0.589,0.366 0.946,0.441 0.355,0.075 0.705,0.141 1.048,0.195 0.713,0.111 1.425,0.165 2.137,0.165 0.713,0 1.439,0.007 2.179,0.021 0.219,0 0.473,0.016 0.761,0.051 0.288,0.034 0.541,0.01 0.761,-0.072 C 0.773,10.058 0.979,9.907 1.13,9.702 1.28,9.496 1.37,9.277 1.397,9.044 1.425,8.811 1.38,8.585 1.264,8.366 1.147,8.146 0.945,7.976 0.657,7.852 0.314,7.715 -0.052,7.653 -0.442,7.667 c -0.391,0.014 -0.764,0.02 -1.12,0.02 -0.522,0 -1.042,-0.006 -1.563,-0.02 C -3.646,7.653 -4.166,7.612 -4.687,7.544 V 4.687 c 0.494,-0.028 0.987,-0.028 1.48,0 0.493,0.027 0.986,0.061 1.48,0.102 0.219,0.014 0.438,0.034 0.658,0.062 0.218,0.027 0.445,0.027 0.678,0 C -0.09,4.81 0.144,4.687 0.308,4.48 0.473,4.275 0.571,4.046 0.605,3.792 0.64,3.539 0.596,3.289 0.473,3.042 0.349,2.796 0.15,2.617 -0.124,2.508 -0.356,2.412 -0.672,2.34 -1.069,2.292 -1.467,2.244 -1.885,2.21 -2.323,2.189 -2.762,2.169 -3.193,2.158 -3.618,2.158 c -0.425,0 -0.781,0.007 -1.069,0.021 V -0.35 c 0.753,-0.095 1.514,-0.109 2.282,-0.041 0.767,0.069 1.52,0.199 2.26,0.391 z"
         style="fill:#ffffff;fill-opacity:1;fill-rule:nonzero;stroke:none"
         id="path2324"
         inkscape:connector-curvature="0" />
    </g>
    <g
       id="g2326"
       transform="matrix(0.45168201,0,0,-0.45168201,36.195199,86.787242)">
      <path
         d="m 0,0 h 3.094 v -9.215 h 5.539 v -2.661 H 0 Z"
         style="fill:#231f20;fill-opacity:1;fill-rule:nonzero;stroke:none"
         id="path2328"
         inkscape:connector-curvature="0" />
    </g>
    <g
       id="g2330"
       transform="matrix(0.45168201,0,0,-0.45168201,40.334864,86.787242)">
      <path
         d="M 0,0 H 9.466 V -2.479 H 3.094 V -4.557 H 8.916 V -6.951 H 3.094 v -2.264 h 6.538 v -2.661 H 0 Z"
         style="fill:#231f20;fill-opacity:1;fill-rule:nonzero;stroke:none"
         id="path2332"
         inkscape:connector-curvature="0" />
    </g>
    <g
       id="g2334"
       transform="matrix(0.45168201,0,0,-0.45168201,49.982083,92.151869)">
      <path
         d="m 0,0 h -1.996 l -0.183,1.298 c -0.815,-1.147 -2.213,-1.546 -3.31,-1.546 -3.593,0 -5.922,2.743 -5.922,6.186 0,3.444 2.329,6.19 5.922,6.19 2.462,0 5.089,-1.315 5.373,-4.292 h -3.095 c -0.1,1.013 -1.098,1.63 -2.346,1.63 -1.996,0 -2.761,-1.764 -2.761,-3.528 0,-1.763 0.765,-3.525 2.761,-3.525 1.532,0 2.563,0.715 2.729,1.796 H -4.99 V 6.505 H 0 Z"
         style="fill:#231f20;fill-opacity:1;fill-rule:nonzero;stroke:none"
         id="path2336"
         inkscape:connector-curvature="0" />
    </g>
    <g
       id="g2338"
       transform="matrix(0.45168201,0,0,-0.45168201,52.867283,91.061462)">
      <path
         d="M 0,0 C 1.996,0 2.761,1.761 2.761,3.524 2.761,5.288 1.996,7.052 0,7.052 -1.996,7.052 -2.761,5.288 -2.761,3.524 -2.761,1.761 -1.996,0 0,0 m 0,9.714 c 3.742,0 5.855,-2.745 5.855,-6.19 0,-3.443 -2.113,-6.186 -5.855,-6.186 -3.742,0 -5.855,2.743 -5.855,6.186 0,3.445 2.113,6.19 5.855,6.19"
         style="fill:#231f20;fill-opacity:1;fill-rule:nonzero;stroke:none"
         id="path2340"
         inkscape:connector-curvature="0" />
    </g>
    <g
       id="g2342"
       transform="matrix(0.45168201,0,0,-0.45168201,36.345172,93.65687)">
      <path
         d="m 0,0 h 3.094 v -9.214 h 5.54 v -2.662 H 0 Z"
         style="fill:#231f20;fill-opacity:1;fill-rule:nonzero;stroke:none"
         id="path2344"
         inkscape:connector-curvature="0" />
    </g>
    <g
       id="g2346"
       transform="matrix(0.45168201,0,0,-0.45168201,40.485279,93.65687)">
      <path
         d="M 0,0 H 9.464 V -2.478 H 3.094 V -4.557 H 8.916 V -6.951 H 3.094 V -9.214 H 9.63 v -2.662 H 0 Z"
         style="fill:#231f20;fill-opacity:1;fill-rule:nonzero;stroke:none"
         id="path2348"
         inkscape:connector-curvature="0" />
    </g>
    <g
       id="g2350"
       transform="matrix(0.45168201,0,0,-0.45168201,46.728588,97.022447)">
      <path
         d="M 0,0 H 2.694 L 1.381,4.159 H 1.347 Z M -0.199,7.451 H 2.943 L 7.385,-4.425 H 4.158 l -0.731,2.129 h -4.142 l -0.749,-2.129 h -3.177 z"
         style="fill:#231f20;fill-opacity:1;fill-rule:nonzero;stroke:none"
         id="path2352"
         inkscape:connector-curvature="0" />
    </g>
    <g
       id="g2354"
       transform="matrix(0.45168201,0,0,-0.45168201,54.970854,99.021054)">
      <path
         d="M 0,0 H -1.996 L -2.18,1.298 c -0.814,-1.148 -2.213,-1.547 -3.309,-1.547 -3.594,0 -5.923,2.743 -5.923,6.187 0,3.444 2.329,6.189 5.923,6.189 2.461,0 5.089,-1.314 5.372,-4.292 h -3.094 c -0.1,1.014 -1.098,1.63 -2.346,1.63 -1.996,0 -2.761,-1.764 -2.761,-3.527 0,-1.763 0.765,-3.525 2.761,-3.525 1.531,0 2.563,0.715 2.729,1.795 H -4.991 V 6.504 H 0 Z"
         style="fill:#231f20;fill-opacity:1;fill-rule:nonzero;stroke:none"
         id="path2356"
         inkscape:connector-curvature="0" />
    </g>
    <g
       id="g2358"
       transform="matrix(0.45168201,0,0,-0.45168201,60.049678,96.804101)">
      <path
         d="m 0,0 c 0,-3.444 -1.58,-5.157 -5.174,-5.157 -3.593,0 -5.173,1.713 -5.173,5.157 v 6.969 h 3.095 v -7.153 c 0,-1.53 0.565,-2.311 2.078,-2.311 1.515,0 2.08,0.781 2.08,2.311 V 6.969 H 0 Z"
         style="fill:#231f20;fill-opacity:1;fill-rule:nonzero;stroke:none"
         id="path2360"
         inkscape:connector-curvature="0" />
    </g>
    <g
       id="g2362"
       transform="matrix(0.45168201,0,0,-0.45168201,60.530434,93.65687)">
      <path
         d="M 0,0 H 9.465 V -2.478 H 3.095 V -4.557 H 8.916 V -6.951 H 3.095 v -2.263 h 6.536 v -2.662 H 0 Z"
         style="fill:#231f20;fill-opacity:1;fill-rule:nonzero;stroke:none"
         id="path2364"
         inkscape:connector-curvature="0" />
    </g>
    <g
       id="g2366"
       transform="matrix(0.45168201,0,0,-0.45168201,17.696519,85.861833)">
      <path
         d="M 0,0 C 1.242,0 2.449,-0.113 3.602,-0.323 L 6.343,2.533 C 4.425,3.196 2.273,3.568 0,3.568 c -3.867,0 -7.378,-1.077 -9.981,-2.833 l 2.387,-2.263 C -5.384,-0.56 -2.786,0 0,0"
         style="fill:#99999a;fill-opacity:1;fill-rule:nonzero;stroke:none"
         id="path2368"
         inkscape:connector-curvature="0" />
    </g>
    <g
       id="g2370"
       transform="matrix(0.45168201,0,0,-0.45168201,17.696519,84.250054)">
      <path
         d="m 0,0 c 2.273,0 4.425,-0.372 6.343,-1.035 l 2.98,3.101 C 6.541,3.162 3.37,3.785 0,3.785 c -5.024,0 -9.608,-1.382 -13.107,-3.657 l 3.126,-2.962 C -7.378,-1.078 -3.867,0 0,0"
         style="fill:#ffffff;fill-opacity:1;fill-rule:nonzero;stroke:none"
         id="path2372"
         inkscape:connector-curvature="0" />
    </g>
    <g
       id="g2374"
       transform="matrix(0.45168201,0,0,-0.45168201,11.233151,89.732885)">
      <path
         d="M 0,0 C 0.25,1.024 0.714,1.995 1.352,2.894 L 0.15,4.106 C -0.087,3.36 -0.22,2.583 -0.22,1.783 -0.22,1.175 -0.143,0.58 0,0"
         style="fill:#99999a;fill-opacity:1;fill-rule:nonzero;stroke:none"
         id="path2376"
         inkscape:connector-curvature="0" />
    </g>
    <g
       id="g2378"
       transform="matrix(0.45168201,0,0,-0.45168201,7.226688,92.765435)">
      <path
         d="m 0,0 -0.505,-2.611 5.016,2.159 C 4.193,0.212 4.131,1.081 3.948,1.786 Z"
         style="fill:#99999a;fill-opacity:1;fill-rule:nonzero;stroke:none"
         id="path2380"
         inkscape:connector-curvature="0" />
    </g>
    <g
       id="g2382"
       transform="matrix(0.45168201,0,0,-0.45168201,5.6325425,79.930437)">
      <path
         d="m 0,0 -7.258,-39.744 3.432,-0.279 7.187,40.322 z"
         style="fill:#99999a;fill-opacity:1;fill-rule:nonzero;stroke:none"
         id="path2384"
         inkscape:connector-curvature="0" />
    </g>
    <g
       id="g2386"
       transform="matrix(0.45168201,0,0,-0.45168201,16.656453,90.260448)">
      <path
         d="m 0,0 v 3.213 l -5.271,4.998 -2.389,2.263 -3.125,2.961 -10.272,9.735 -7.189,-40.322 15.212,6.685 c -1.515,1.339 -2.589,2.765 -3.386,4.446 l -4.952,-2.125 0.497,2.599 3.209,16.725 0.267,1.402 2.65,-2.667 3.409,-3.434 1.463,-1.474 6.017,-5.183 -5.84,-2.676 c 1.516,-1.517 3.314,-2.851 5.735,-3.605 l 7.288,3.272 z"
         style="fill:#ed1c24;fill-opacity:1;fill-rule:nonzero;stroke:none"
         id="path2388"
         inkscape:connector-curvature="0" />
    </g>
    <g
       id="g2390"
       transform="matrix(0.45168201,0,0,-0.45168201,24.159003,89.732885)">
      <path
         d="m 0,0 c 0.141,0.58 0.22,1.175 0.22,1.783 0,1.796 -0.657,3.489 -1.787,4.962 L -3.296,4.953 C -1.635,3.57 -0.455,1.868 0,0"
         style="fill:#99999a;fill-opacity:1;fill-rule:nonzero;stroke:none"
         id="path2392"
         inkscape:connector-curvature="0" />
    </g>
    <g
       id="g2394"
       transform="matrix(0.45168201,0,0,-0.45168201,25.628348,97.416311)">
      <path
         d="M 0,0 -4.101,3.939 C -4.757,3.491 -5.457,3.076 -6.19,2.694 L 0,-3.249 l 19.09,19.883 -0.021,3.22 z"
         style="fill:#99999a;fill-opacity:1;fill-rule:nonzero;stroke:none"
         id="path2396"
         inkscape:connector-curvature="0" />
    </g>
    <g
       id="g2398"
       transform="matrix(0.45168201,0,0,-0.45168201,19.344897,91.384371)">
      <path
         d="m 0,0 -3.377,3.242 -2.584,2.468 -0.01,-3.222 3.634,-3.49 3.472,-3.335 c 0.883,0.219 1.726,0.497 2.52,0.827 z"
         style="fill:#99999a;fill-opacity:1;fill-rule:nonzero;stroke:none"
         id="path2400"
         inkscape:connector-curvature="0" />
    </g>
    <g
       id="g2402"
       transform="matrix(0.45168201,0,0,-0.45168201,25.3403,83.261999)">
      <path
         d="m 0,0 -2.717,-2.83 -2.998,-3.124 -2.044,-2.128 -3.872,-4.032 1.622,-1.558 4.12,4.292 1.723,1.793 3.156,3.287 1.01,1.052 10.497,-10.064 1.624,1.686 z"
         style="fill:#99999a;fill-opacity:1;fill-rule:nonzero;stroke:none"
         id="path2404"
         inkscape:connector-curvature="0" />
    </g>
    <g
       id="g2406"
       transform="matrix(0.45168201,0,0,-0.45168201,24.884632,85.204141)">
      <path
         d="m 0,0 -3.157,-3.287 c 1.13,-1.472 1.769,-3.16 1.769,-4.956 0,-0.608 -0.077,-1.204 -0.218,-1.782 -0.369,-1.512 -1.197,-2.912 -2.377,-4.122 -1.209,-1.241 -2.789,-2.283 -4.626,-3.046 -0.794,-0.329 -1.638,-0.609 -2.521,-0.828 -1.497,-0.37 -3.108,-0.577 -4.784,-0.577 -2.066,0 -4.028,0.309 -5.808,0.863 -2.423,0.754 -4.501,1.966 -6.018,3.482 -0.555,0.553 -1.033,1.147 -1.428,1.774 -0.486,0.773 -0.846,1.593 -1.056,2.454 -0.142,0.578 -0.218,1.174 -0.218,1.782 0,0.801 0.132,1.578 0.37,2.324 l -3.626,3.669 c -1.327,-1.968 -2.076,-4.186 -2.076,-6.536 0,-0.605 0.056,-1.2 0.151,-1.784 0.232,-1.42 0.742,-2.777 1.483,-4.041 0.371,-0.636 0.802,-1.247 1.288,-1.833 1.276,-1.538 2.919,-2.889 4.847,-3.985 3.347,-1.904 7.538,-3.041 12.091,-3.041 3.185,0 6.19,0.556 8.857,1.54 0.81,0.299 1.586,0.638 2.328,1.013 1.719,0.87 3.245,1.933 4.518,3.148 2.137,2.04 3.563,4.506 4.005,7.199 0.096,0.584 0.149,1.179 0.149,1.784 C 3.943,-5.491 2.477,-2.449 0,0"
         style="fill:#ffffff;fill-opacity:1;fill-rule:nonzero;stroke:none"
         id="path2408"
         inkscape:connector-curvature="0" />
    </g>
    <g
       id="g2410"
       transform="matrix(0.45168201,0,0,-0.45168201,19.337411,91.39539)">
      <path
         d="m 0,0 3.644,-3.499 c 1.834,0.765 3.426,1.796 4.636,3.035 l -4.995,4.796 -1.622,1.559 3.852,4.01 2.042,2.128 2.998,3.124 2.719,2.829 L 25.366,6.372 23.742,4.682 13.836,-5.635 C 12.792,-7.063 11.439,-8.333 9.84,-9.428 L 13.91,-13.355 33.001,6.527 13.118,25.617 5.672,17.862 2.692,14.758 -0.051,11.902 -5.944,5.734 Z"
         style="fill:#0065b3;fill-opacity:1;fill-rule:nonzero;stroke:none"
         id="path2412"
         inkscape:connector-curvature="0" />
    </g>
    <g
       id="g2414"
       transform="matrix(0.45168201,0,0,-0.45168201,11.74746,90.885035)">
      <path
         d="M 0,0 C 0,0 0.095,-0.157 0.106,-0.176 0.397,-0.639 0.798,-1.062 1.178,-1.487 L 7.116,1.258 -6.532,13.969 -6.904,12.003 3.804,1.4 Z"
         style="fill:#99999a;fill-opacity:1;fill-rule:nonzero;stroke:none"
         id="path2416"
         inkscape:connector-curvature="0" />
    </g>
    <g
       id="g2418"
       transform="matrix(0.45168201,0,0,-0.45168201,26.665771,89.172708)">
      <path
         d="m 0,0 c 0,-0.604 -0.054,-1.199 -0.149,-1.783 -0.442,-2.693 -1.87,-5.159 -4.005,-7.199 -1.274,-1.216 -2.799,-2.28 -4.518,-3.149 -0.742,-0.374 -1.518,-0.714 -2.328,-1.013 -2.666,-0.984 -5.673,-1.539 -8.858,-1.539 -4.552,0 -8.744,1.136 -12.089,3.04 -1.929,1.095 -3.574,2.446 -4.848,3.985 -0.485,0.586 -0.917,1.197 -1.288,1.834 -0.741,1.264 -1.25,2.621 -1.483,4.041 -0.096,0.584 -0.152,1.179 -0.152,1.783 0,0.19 0.015,0.379 0.025,0.565 -0.002,0.01 -0.006,0.025 -0.007,0.034 -0.098,-0.585 -0.018,-3.563 -0.018,-4.168 0,-0.957 0.128,-1.893 0.365,-2.798 0.185,-0.709 0.438,-1.397 0.754,-2.063 0.797,-1.679 1.994,-3.221 3.509,-4.56 3.645,-3.215 9.115,-5.261 15.232,-5.261 4.245,0 8.174,0.988 11.403,2.664 0.732,0.381 1.43,0.798 2.085,1.244 1.6,1.097 2.956,2.382 3.999,3.813 C -0.858,-8.46 0,-6.09 0,-3.569 0,-3.038 0.047,-0.519 -0.004,0.482 -0.014,0.619 0,0.174 0,0"
         style="fill:#99999a;fill-opacity:1;fill-rule:nonzero;stroke:none"
         id="path2420"
         inkscape:connector-curvature="0" />
    </g>
    <g
       id="g2422"
       transform="matrix(0.45168201,0,0,-0.45168201,55.830596,87.504919)">
      <path
         d="m 0,0 c 0.094,0 0.146,0.045 0.146,0.13 0,0.083 -0.047,0.129 -0.143,0.129 -0.021,0 -0.024,0 -0.044,-0.004 V 0.004 C -0.026,0 -0.018,0 0,0 m -0.382,0.51 c 0.055,0.003 0.062,0.006 0.168,0.013 0.109,0.009 0.153,0.014 0.196,0.014 0.349,0 0.521,-0.136 0.521,-0.393 0,-0.157 -0.066,-0.249 -0.203,-0.303 L 0.282,-0.165 C 0.294,-0.173 0.3,-0.177 0.304,-0.185 0.339,-0.217 0.462,-0.4 0.564,-0.569 H 0.167 c -0.081,0.151 -0.105,0.193 -0.208,0.363 V -0.569 H -0.382 Z M 0.03,-0.963 c 0.517,0 0.928,0.414 0.928,0.925 0,0.517 -0.411,0.932 -0.928,0.932 -0.513,0 -0.928,-0.415 -0.928,-0.927 0,-0.52 0.41,-0.93 0.928,-0.93 m 0,1.988 c 0.584,0 1.06,-0.472 1.06,-1.058 0,-0.589 -0.472,-1.061 -1.06,-1.061 -0.595,0 -1.06,0.463 -1.06,1.061 0,0.59 0.469,1.058 1.06,1.058"
         style="fill:#231f20;fill-opacity:1;fill-rule:nonzero;stroke:none"
         id="path2424"
         inkscape:connector-curvature="0" />
    </g>
    <g
       id="g2426"
       transform="matrix(0.45168201,0,0,-0.45168201,37.488044,79.695743)">
      <path
         d="M 0,0 H 8.409 L 7.617,-3.238 H 3.586 L 3.188,-4.94 h 4.206 l -0.733,-3 H 2.511 L 1.515,-12.203 H -2.83 Z"
         style="fill:#231f20;fill-opacity:1;fill-rule:nonzero;stroke:none"
         id="path2428"
         inkscape:connector-curvature="0" />
    </g>
    <g
       id="g2430"
       transform="matrix(0.45168201,0,0,-0.45168201,41.802854,79.695743)">
      <path
         d="M 0,0 H 4.344 L 1.515,-12.203 H -2.83 Z"
         style="fill:#231f20;fill-opacity:1;fill-rule:nonzero;stroke:none"
         id="path2432"
         inkscape:connector-curvature="0" />
    </g>
    <g
       id="g2434"
       transform="matrix(0.45168201,0,0,-0.45168201,45.727745,82.323807)">
      <path
         d="m 0,0 c 1.395,0 2.371,0.823 2.371,1.994 0,0.622 -0.458,0.934 -1.355,0.934 -0.259,0 -0.399,-0.019 -0.678,-0.074 L -0.319,0.036 C -0.18,0.019 -0.159,0 0,0 m -3.208,5.745 0.279,0.036 c 1.394,0.165 3.127,0.275 4.084,0.275 1.594,0 2.83,-0.183 3.767,-0.568 C 6.117,4.995 6.835,3.915 6.835,2.616 6.835,1.5 6.456,0.439 5.738,-0.384 5.12,-1.098 4.562,-1.444 3.407,-1.792 L 3.128,-1.884 c 0.119,-0.092 0.159,-0.129 0.22,-0.183 0.339,-0.384 1.355,-2.36 2.212,-4.318 H 0.776 c -0.617,1.738 -0.797,2.197 -1.614,4.172 l -0.956,-4.172 h -4.224 z"
         style="fill:#231f20;fill-opacity:1;fill-rule:nonzero;stroke:none"
         id="path2436"
         inkscape:connector-curvature="0" />
    </g>
    <g
       id="g2438"
       transform="matrix(0.45168201,0,0,-0.45168201,53.473356,79.695743)">
      <path
         d="M 0,0 H 10.54 L 9.804,-3.533 H 6.676 l -2.073,-8.67 H 0.258 l 2.073,8.67 H -1.06 Z"
         style="fill:#231f20;fill-opacity:1;fill-rule:nonzero;stroke:none"
         id="path2440"
         inkscape:connector-curvature="0" />
    </g>
    <g
       id="g2442"
       transform="matrix(0.45168201,0,0,-0.45168201,56.457813,84.685429)">
      <path
         d="m 0,0 c 0.094,0 0.146,0.045 0.146,0.132 0,0.081 -0.047,0.126 -0.142,0.126 -0.021,0 -0.025,0 -0.046,-0.004 V 0.004 C -0.025,0 -0.017,0 0,0 m -0.382,0.508 c 0.055,0.004 0.063,0.008 0.168,0.016 0.108,0.008 0.152,0.013 0.197,0.013 0.348,0 0.52,-0.136 0.52,-0.394 0,-0.156 -0.066,-0.249 -0.203,-0.302 L 0.283,-0.164 C 0.295,-0.172 0.3,-0.176 0.304,-0.185 0.34,-0.218 0.463,-0.401 0.565,-0.569 H 0.168 c -0.082,0.151 -0.106,0.192 -0.21,0.364 v -0.364 h -0.34 z m 0.41,-1.471 c 0.516,0 0.93,0.414 0.93,0.926 0,0.516 -0.414,0.931 -0.93,0.931 -0.511,0 -0.925,-0.415 -0.925,-0.927 0,-0.521 0.409,-0.93 0.925,-0.93 m 0,1.986 c 0.585,0 1.062,-0.47 1.062,-1.056 0,-0.59 -0.472,-1.062 -1.062,-1.062 -0.594,0 -1.057,0.464 -1.057,1.062 0,0.59 0.467,1.056 1.057,1.056"
         style="fill:#231f20;fill-opacity:1;fill-rule:nonzero;stroke:none"
         id="path2444"
         inkscape:connector-curvature="0" />
    </g>
    <g
       id="g2446"
       transform="matrix(0.45168201,0,0,-0.45168201,48.432082,85.067418)">
      <path
         d="m 0,0 c 1.221,-0.363 2.558,-0.567 3.805,-0.567 1.693,0 2.989,0.384 4.104,1.189 1.236,0.879 2.034,2.232 2.034,3.458 0,0.823 -0.359,1.573 -0.996,2.105 C 8.447,6.586 7.93,6.897 6.874,7.393 L 6.017,7.795 C 5.737,7.94 5.599,8.087 5.599,8.252 c 0,0.438 0.557,0.769 1.314,0.769 0.567,0 1.241,-0.166 2.532,-0.587 l 0.891,3.302 C 9.37,11.999 8.43,12.131 7.491,12.131 3.944,12.131 1.214,10.191 1.214,7.685 1.214,6.367 2.092,5.435 4.282,4.409 5.318,3.935 5.498,3.806 5.498,3.477 5.498,2.982 4.961,2.672 4.084,2.672 3.307,2.672 2.31,2.909 0.954,3.403 H 0.953 Z"
         style="fill:#231f20;fill-opacity:1;fill-rule:nonzero;stroke:none"
         id="path2448"
         inkscape:connector-curvature="0" />
    </g>
  </g>
</svg>
